<svg width="474" height="124" viewBox="0 0 474 124" fill="none" xmlns="http://www.w3.org/2000/svg">
<path d="M471.312 51.5979C474.724 56.0334 472.507 55.6922 468.753 55.8628C433.44 57.3982 397.955 57.3982 362.471 57.5688C362.13 57.5688 352.235 58.5924 361.959 54.8393C388.231 44.4328 415.015 34.5381 442.14 27.2024C447.77 25.667 447.429 26.0082 450.67 28.9084C453.911 31.8086 456.812 35.0499 459.712 38.1207C463.635 42.3856 467.73 46.8211 471.312 51.5979ZM89.8558 81.4525C62.0483 75.311 33.8997 70.3636 5.92163 64.9045C-2.43766 63.1985 1.14489 67.4635 2.50968 70.7049C5.40984 77.6994 8.31002 84.5233 11.722 91.1766C14.2809 96.1239 14.6221 95.7827 20.0813 95.1003C43.6237 92.3708 66.9957 88.7882 90.197 84.6939C99.2386 83.1585 93.6089 82.1349 89.8558 81.4525ZM403.244 5.19529C398.297 3.48931 393.008 2.29513 387.72 1.10095C384.649 0.418558 382.09 1.10094 380.384 3.31871C372.707 13.2134 365.542 23.7904 358.377 34.1969C353.941 40.509 356.5 38.6325 360.253 36.4147C374.754 27.7142 389.937 19.8667 404.097 10.4838C408.362 7.58367 407.509 6.73067 403.244 5.19529ZM71.2606 24.814C67.5074 26.3494 63.5837 27.8848 59.8305 29.2496C54.0302 31.4674 55.2244 32.1497 59.1482 34.3675C69.5546 39.9972 80.3023 45.1152 91.0499 50.4037C95.9973 52.7921 96.1679 52.2803 93.2677 48.0153C88.6616 40.8502 83.7142 33.8557 78.4257 27.0318C76.0373 23.6199 74.8431 23.2787 71.2606 24.814ZM381.749 96.1239C374.925 90.4942 367.93 85.2057 360.765 80.0877C358.206 78.2112 357.012 78.723 358.377 81.7937C363.324 92.712 368.101 103.801 373.389 114.548C376.119 120.178 376.631 119.666 378.848 114.378C380.384 110.795 381.919 107.383 383.455 103.971C386.014 98.0005 385.161 98.8535 381.749 96.1239ZM98.3857 96.6357C88.8322 103.971 79.4493 111.648 70.4076 119.666C66.4839 123.078 67.1662 124.102 71.2606 123.761C74.3314 123.59 77.2315 123.42 80.3023 122.908C84.5672 122.225 86.1026 121.372 89.6852 116.254C93.7795 110.284 97.7032 104.483 101.456 98.1711C105.551 90.8354 100.262 95.1003 98.3857 96.6357Z" fill="#EB8382"/>
</svg>
